<svg aria-hidden="true" style="position: absolute; width: 0; height: 0; overflow: hidden;" version="1.1" xmlns="http://www.w3.org/2000/svg" xmlns:xlink="http://www.w3.org/1999/xlink">
<defs>
<symbol id="icon-moon" viewBox="0 0 32 32">
<path d="M15.505 16.496c-1.97-1.971-2.499-4.819-1.626-7.284-0.953 0.337-1.854 0.865-2.616 1.626-2.734 2.734-2.734 7.167 0 9.9 2.733 2.733 7.164 2.735 9.898 0 0.764-0.762 1.29-1.663 1.626-2.616-2.463 0.872-5.312 0.344-7.283-1.626z"></path>
</symbol>
<symbol id="icon-sun" viewBox="0 0 32 32">
<path d="M16 9c-3.859 0-7 3.141-7 7s3.141 7 7 7 7-3.141 7-7c0-3.859-3.141-7-7-7zM16 7c0.552 0 1-0.447 1-1v-2c0-0.552-0.448-1-1-1-0.553 0-1 0.448-1 1v2c0 0.553 0.447 1 1 1zM16 25c-0.553 0-1 0.448-1 1v2c0 0.553 0.447 1 1 1 0.552 0 1-0.447 1-1v-2c0-0.552-0.448-1-1-1zM23.776 9.635l1.414-1.414c0.391-0.391 0.391-1.023 0-1.414s-1.023-0.391-1.414 0l-1.414 1.414c-0.391 0.391-0.391 1.023 0 1.414s1.023 0.391 1.414 0zM8.221 22.366l-1.414 1.414c-0.391 0.391-0.391 1.023 0 1.414s1.023 0.391 1.414 0l1.414-1.414c0.391-0.393 0.391-1.023 0-1.414s-1.023-0.393-1.414 0zM7 16c0-0.552-0.448-1-1-1h-2c-0.553 0-1 0.448-1 1 0 0.553 0.447 1 1 1h2c0.552 0 1-0.447 1-1zM28 15h-2c-0.553 0-1 0.448-1 1 0 0.553 0.447 1 1 1h2c0.552 0 1-0.447 1-1 0-0.552-0.448-1-1-1zM8.22 9.635c0.391 0.391 1.023 0.391 1.414 0s0.391-1.023 0-1.414l-1.414-1.414c-0.391-0.391-1.024-0.391-1.414 0s-0.391 1.023 0 1.414l1.414 1.414zM23.779 22.363c-0.393-0.391-1.023-0.391-1.414 0s-0.393 1.023 0 1.414l1.414 1.414c0.391 0.391 1.023 0.391 1.414 0s0.391-1.023 0-1.414l-1.414-1.414z"></path>
</symbol>
<symbol id="icon-cloud-moon-lightning" viewBox="0 0 32 32">
<path d="M17.067 21l1.533-4h-3.9l-2.3 6h2.579l-1.479 4.1 6.1-6.1h-2.533zM13.545 24h-5.546c-2.767 0-4.999-2.239-4.999-5 0-2.051 1.24-3.818 3.012-4.588-0.008-0.136-0.012-0.273-0.012-0.412 0-3.866 3.134-7 7-7 1.129 0 2.196 0.267 3.141 0.743-0.092-0.399-0.141-0.815-0.141-1.243 0-2.577 1.772-4.739 4.163-5.337 0.351-0.088 0.716-0.142 1.091-0.158-0.165 0.468-0.254 0.971-0.254 1.495 0 2.485 2.015 4.5 4.5 4.5 0.524 0 1.027-0.090 1.495-0.254-0.016 0.375-0.070 0.739-0.158 1.091-0.258 1.035-0.81 1.954-1.562 2.664v0c1.043 0.985 1.701 2.373 1.724 3.915 1.768 0.771 3.001 2.534 3.001 4.585 0 2.756-2.238 5-4.999 5h-7.001l-7 7 2.545-7zM24.477 9.875c0.57-0.503 1.011-1.148 1.269-1.88-0.081 0.004-0.163 0.005-0.246 0.005-3.038 0-5.5-2.462-5.5-5.5 0-0.082 0.002-0.164 0.005-0.246-1.751 0.616-3.005 2.284-3.005 4.246 0 0.8 0.209 1.55 0.574 2.201 0.386 0.333 0.734 0.707 1.039 1.116 0.839-0.518 1.828-0.817 2.886-0.817 1.097 0 2.119 0.321 2.977 0.875v0 0z"></path>
</symbol>
<symbol id="icon-cloud-sun-lightning" viewBox="0 0 32 32">
<path d="M17.067 21l1.533-4h-3.9l-2.3 6h2.579l-1.479 4.1 6.1-6.1h-2.533zM13.545 24h-5.546c-2.767 0-4.999-2.239-4.999-5 0-2.051 1.24-3.818 3.012-4.588-0.008-0.136-0.012-0.273-0.012-0.412 0-3.866 3.134-7 7-7 0.522 0 1.030 0.057 1.519 0.165v0c0.878-1.87 2.778-3.165 4.981-3.165 3.038 0 5.5 2.462 5.5 5.5 0 0.244-0.016 0.484-0.047 0.719v0c1.228 0.992 2.020 2.501 2.046 4.195 1.768 0.771 3.001 2.534 3.001 4.585 0 2.756-2.238 5-4.999 5h-7.001l-7 7 2.545-7zM23.999 9.599c0.001-0.033 0.001-0.066 0.001-0.099 0-2.485-2.015-4.5-4.5-4.5-1.749 0-3.265 0.998-4.010 2.456 1.253 0.477 2.334 1.304 3.124 2.362 0.839-0.518 1.828-0.817 2.886-0.817 0.9 0 1.749 0.216 2.499 0.599v0 0zM19.5 0c-0.276 0-0.5 0.216-0.5 0.495v2.009c0 0.274 0.232 0.495 0.5 0.495 0.276 0 0.5-0.216 0.5-0.495v-2.009c0-0.274-0.232-0.495-0.5-0.495v0zM26.233 2.789c-0.195-0.195-0.506-0.201-0.704-0.003l-1.421 1.421c-0.193 0.193-0.186 0.514 0.003 0.704 0.195 0.195 0.506 0.201 0.704 0.003l1.421-1.421c0.193-0.193 0.186-0.514-0.003-0.704v0zM29.022 9.522c0-0.276-0.216-0.5-0.495-0.5h-2.009c-0.274 0-0.495 0.232-0.495 0.5 0 0.276 0.216 0.5 0.495 0.5h2.009c0.274 0 0.495-0.232 0.495-0.5v0zM12.767 2.789c-0.195 0.195-0.201 0.506-0.003 0.704l1.421 1.421c0.193 0.193 0.514 0.186 0.704-0.003 0.195-0.195 0.201-0.506 0.003-0.704l-1.421-1.421c-0.193-0.193-0.514-0.186-0.704 0.003v0z"></path>
</symbol>
<symbol id="icon-cloud-moon-snow" viewBox="0 0 32 32">
<path d="M25.275 10.495v0 0c1.043 0.985 1.701 2.373 1.724 3.915 1.768 0.771 3.001 2.534 3.001 4.585 0 2.756-2.238 5-4.999 5h-17.001c-2.767 0-4.999-2.239-4.999-5 0-2.051 1.24-3.818 3.012-4.588-0.008-0.136-0.012-0.273-0.012-0.412 0-3.866 3.134-7 7-7 1.129 0 2.196 0.267 3.141 0.743-0.092-0.399-0.141-0.815-0.141-1.243 0-2.577 1.772-4.739 4.163-5.337 0.351-0.088 0.716-0.142 1.091-0.158-0.165 0.468-0.254 0.971-0.254 1.495 0 2.485 2.015 4.5 4.5 4.5 0.524 0 1.027-0.090 1.495-0.254-0.016 0.375-0.070 0.739-0.158 1.091-0.258 1.035-0.81 1.954-1.562 2.664zM24.477 9.869c0.57-0.503 1.011-1.148 1.269-1.88-0.081 0.004-0.163 0.005-0.246 0.005-3.038 0-5.5-2.462-5.5-5.5 0-0.082 0.002-0.164 0.005-0.246-1.751 0.616-3.005 2.284-3.005 4.246 0 0.8 0.209 1.55 0.574 2.201 0.386 0.333 0.734 0.707 1.039 1.116 0.839-0.518 1.828-0.817 2.886-0.817 1.097 0 2.119 0.321 2.977 0.875v0 0zM10 26c-0.552 0-1 0.444-1 1 0 0.552 0.444 1 1 1 0.552 0 1-0.444 1-1 0-0.552-0.444-1-1-1v0zM13 29c-0.552 0-1 0.444-1 1 0 0.552 0.444 1 1 1 0.552 0 1-0.444 1-1 0-0.552-0.444-1-1-1v0zM17 26c-0.552 0-1 0.444-1 1 0 0.552 0.444 1 1 1 0.552 0 1-0.444 1-1 0-0.552-0.444-1-1-1v0zM20 29c-0.552 0-1 0.444-1 1 0 0.552 0.444 1 1 1 0.552 0 1-0.444 1-1 0-0.552-0.444-1-1-1v0zM23 26c-0.552 0-1 0.444-1 1 0 0.552 0.444 1 1 1 0.552 0 1-0.444 1-1 0-0.552-0.444-1-1-1v0z"></path>
</symbol>
<symbol id="icon-cloud-sun-snow" viewBox="0 0 32 32">
<path d="M24.953 10.219v0 0c1.228 0.992 2.020 2.501 2.046 4.195 1.768 0.771 3.001 2.534 3.001 4.585 0 2.756-2.238 5-4.999 5h-17.001c-2.767 0-4.999-2.239-4.999-5 0-2.051 1.24-3.818 3.012-4.588-0.008-0.136-0.012-0.273-0.012-0.412 0-3.866 3.134-7 7-7 0.522 0 1.030 0.057 1.519 0.165v0c0.878-1.87 2.778-3.165 4.981-3.165 3.038 0 5.5 2.462 5.5 5.5 0 0.244-0.016 0.484-0.047 0.719zM23.999 9.599c0.001-0.033 0.001-0.066 0.001-0.099 0-2.485-2.015-4.5-4.5-4.5-1.749 0-3.265 0.998-4.010 2.456 1.253 0.477 2.334 1.304 3.124 2.362 0.839-0.518 1.828-0.817 2.886-0.817 0.9 0 1.749 0.216 2.499 0.599v0 0zM19.5 0c-0.276 0-0.5 0.216-0.5 0.495v2.009c0 0.274 0.232 0.495 0.5 0.495 0.276 0 0.5-0.216 0.5-0.495v-2.009c0-0.274-0.232-0.495-0.5-0.495v0zM26.233 2.789c-0.195-0.195-0.506-0.201-0.704-0.003l-1.421 1.421c-0.193 0.193-0.186 0.514 0.003 0.704 0.195 0.195 0.506 0.201 0.704 0.003l1.421-1.421c0.193-0.193 0.186-0.514-0.003-0.704v0zM29.022 9.522c0-0.276-0.216-0.5-0.495-0.5h-2.009c-0.274 0-0.495 0.232-0.495 0.5 0 0.276 0.216 0.5 0.495 0.5h2.009c0.274 0 0.495-0.232 0.495-0.5v0zM12.767 2.789c-0.195 0.195-0.201 0.506-0.003 0.704l1.421 1.421c0.193 0.193 0.514 0.186 0.704-0.003 0.195-0.195 0.201-0.506 0.003-0.704l-1.421-1.421c-0.193-0.193-0.514-0.186-0.704 0.003v0zM10 26c-0.552 0-1 0.444-1 1 0 0.552 0.444 1 1 1 0.552 0 1-0.444 1-1 0-0.552-0.444-1-1-1v0zM13 29c-0.552 0-1 0.444-1 1 0 0.552 0.444 1 1 1 0.552 0 1-0.444 1-1 0-0.552-0.444-1-1-1v0zM17 26c-0.552 0-1 0.444-1 1 0 0.552 0.444 1 1 1 0.552 0 1-0.444 1-1 0-0.552-0.444-1-1-1v0zM20 29c-0.552 0-1 0.444-1 1 0 0.552 0.444 1 1 1 0.552 0 1-0.444 1-1 0-0.552-0.444-1-1-1v0zM23 26c-0.552 0-1 0.444-1 1 0 0.552 0.444 1 1 1 0.552 0 1-0.444 1-1 0-0.552-0.444-1-1-1v0z"></path>
</symbol>
<symbol id="icon-cloud-moon-rain" viewBox="0 0 32 32">
<path d="M25.275 10.495v0 0c1.043 0.985 1.701 2.373 1.724 3.915 1.768 0.771 3.001 2.534 3.001 4.585 0 2.756-2.238 5-4.999 5h-17.001c-2.767 0-4.999-2.239-4.999-5 0-2.051 1.24-3.818 3.012-4.588-0.008-0.136-0.012-0.273-0.012-0.412 0-3.866 3.134-7 7-7 1.129 0 2.196 0.267 3.141 0.743-0.092-0.399-0.141-0.815-0.141-1.243 0-2.577 1.772-4.739 4.163-5.337 0.351-0.088 0.716-0.142 1.091-0.158-0.165 0.468-0.254 0.971-0.254 1.495 0 2.485 2.015 4.5 4.5 4.5 0.524 0 1.027-0.090 1.495-0.254-0.016 0.375-0.070 0.739-0.158 1.091-0.258 1.035-0.81 1.954-1.562 2.664zM24.477 9.869c0.57-0.503 1.011-1.148 1.269-1.88-0.081 0.004-0.163 0.005-0.246 0.005-3.038 0-5.5-2.462-5.5-5.5 0-0.082 0.002-0.164 0.005-0.246-1.751 0.616-3.005 2.284-3.005 4.246 0 0.8 0.209 1.55 0.574 2.201 0.386 0.333 0.734 0.707 1.039 1.116 0.839-0.518 1.828-0.817 2.886-0.817 1.097 0 2.119 0.321 2.977 0.875v0 0zM10.5 25c-0.276 0-0.5 0.216-0.5 0.495v2.009c0 0.274 0.232 0.495 0.5 0.495 0.276 0 0.5-0.216 0.5-0.495v-2.009c0-0.274-0.232-0.495-0.5-0.495v0zM13.5 27c-0.276 0-0.5 0.216-0.5 0.495v2.009c0 0.274 0.232 0.495 0.5 0.495 0.276 0 0.5-0.216 0.5-0.495v-2.009c0-0.274-0.232-0.495-0.5-0.495v0zM16.5 25c-0.276 0-0.5 0.216-0.5 0.495v2.009c0 0.274 0.232 0.495 0.5 0.495 0.276 0 0.5-0.216 0.5-0.495v-2.009c0-0.274-0.232-0.495-0.5-0.495v0zM19.5 27c-0.276 0-0.5 0.216-0.5 0.495v2.009c0 0.274 0.232 0.495 0.5 0.495 0.276 0 0.5-0.216 0.5-0.495v-2.009c0-0.274-0.232-0.495-0.5-0.495v0zM22.5 25c-0.276 0-0.5 0.216-0.5 0.495v2.009c0 0.274 0.232 0.495 0.5 0.495 0.276 0 0.5-0.216 0.5-0.495v-2.009c0-0.274-0.232-0.495-0.5-0.495v0z"></path>
</symbol>
<symbol id="icon-cloud-sun-rain" viewBox="0 0 32 32">
<path d="M24.953 10.219v0c1.228 0.992 2.020 2.501 2.046 4.195 1.768 0.771 3.001 2.534 3.001 4.585 0 2.756-2.238 5-4.999 5h-17.001c-2.767 0-4.999-2.239-4.999-5 0-2.051 1.24-3.818 3.012-4.588-0.008-0.136-0.012-0.273-0.012-0.412 0-3.866 3.134-7 7-7 0.522 0 1.030 0.057 1.519 0.165v0c0.878-1.87 2.778-3.165 4.981-3.165 3.038 0 5.5 2.462 5.5 5.5 0 0.244-0.016 0.484-0.047 0.719zM23.999 9.599c0.001-0.033 0.001-0.066 0.001-0.099 0-2.485-2.015-4.5-4.5-4.5-1.749 0-3.265 0.998-4.010 2.456 1.253 0.477 2.334 1.304 3.124 2.362 0.839-0.518 1.828-0.817 2.886-0.817 0.9 0 1.749 0.216 2.499 0.599v0zM19.5 0c-0.276 0-0.5 0.216-0.5 0.495v2.009c0 0.274 0.232 0.495 0.5 0.495 0.276 0 0.5-0.216 0.5-0.495v-2.009c0-0.274-0.232-0.495-0.5-0.495v0zM26.233 2.789c-0.195-0.195-0.506-0.201-0.704-0.003l-1.421 1.421c-0.193 0.193-0.186 0.514 0.003 0.704 0.195 0.195 0.506 0.201 0.704 0.003l1.421-1.421c0.193-0.193 0.186-0.514-0.003-0.704v0zM29.022 9.522c0-0.276-0.216-0.5-0.495-0.5h-2.009c-0.274 0-0.495 0.232-0.495 0.5 0 0.276 0.216 0.5 0.495 0.5h2.009c0.274 0 0.495-0.232 0.495-0.5v0zM12.767 2.789c-0.195 0.195-0.201 0.506-0.003 0.704l1.421 1.421c0.193 0.193 0.514 0.186 0.704-0.003 0.195-0.195 0.201-0.506 0.003-0.704l-1.421-1.421c-0.193-0.193-0.514-0.186-0.704 0.003v0z"></path>
</symbol>
<symbol id="icon-cloud-moon" viewBox="0 0 32 32">
<path d="M25.275 10.5v0c1.043 0.985 1.701 2.373 1.724 3.915 1.768 0.771 3.001 2.534 3.001 4.585 0 2.756-2.238 5-4.999 5h-17.001c-2.767 0-4.999-2.239-4.999-5 0-2.051 1.24-3.818 3.012-4.588-0.008-0.136-0.012-0.273-0.012-0.412 0-3.866 3.134-7 7-7 1.129 0 2.196 0.267 3.141 0.743-0.092-0.399-0.141-0.815-0.141-1.243 0-2.577 1.772-4.739 4.163-5.337 0.351-0.088 0.716-0.142 1.091-0.158-0.165 0.468-0.254 0.971-0.254 1.495 0 2.485 2.015 4.5 4.5 4.5 0.524 0 1.027-0.090 1.495-0.254-0.016 0.375-0.070 0.739-0.158 1.091-0.258 1.035-0.81 1.954-1.562 2.664zM24.477 9.875c0.57-0.503 1.011-1.148 1.269-1.88-0.081 0.004-0.163 0.005-0.246 0.005-3.038 0-5.5-2.462-5.5-5.5 0-0.082 0.002-0.164 0.005-0.246-1.751 0.616-3.005 2.284-3.005 4.246 0 0.8 0.209 1.55 0.574 2.201 0.386 0.333 0.734 0.707 1.039 1.116 0.839-0.518 1.828-0.817 2.886-0.817 1.097 0 2.119 0.321 2.977 0.875v0z"></path>
</symbol>
<symbol id="icon-cloud-wind" viewBox="0 0 32 32">
<path d="M26.999 8.415c1.768 0.771 3.001 2.534 3.001 4.585 0 2.756-2.238 5-4.999 5h-17.001c-2.767 0-4.999-2.239-4.999-5 0-2.051 1.24-3.818 3.012-4.588v0c-0.008-0.136-0.012-0.273-0.012-0.412 0-3.866 3.134-7 7-7 2.298 0 4.337 1.107 5.614 2.817 0.839-0.518 1.828-0.817 2.886-0.817 3.009 0 5.454 2.416 5.499 5.415v0 0zM30 23c0-2.209-1.795-4-4-4-2.209 0-4 1.789-4 4h1c0-1.657 1.347-3 3-3 1.657 0 3 1.347 3 3 0 1.657-1.343 3-3.008 3h-22.992v1h23.002c2.208 0 3.998-1.795 3.998-4v0zM21 22c0-1.657-1.347-3-3-3-1.657 0-3 1.342-3 2.991v0.009h1c0-1.105 0.888-2 2-2 1.105 0 2 0.888 2 2 0 1.105-0.897 2-2.006 2h-11.994v1h12.001c1.657 0 2.999-1.347 2.999-3v0zM25 30c0 1.105-0.888 2-2 2v0c-1.105 0-2-0.895-2-1.994v-0.006h1c0 0.552 0.444 1 1 1v0c0.552 0 1-0.444 1-1v0c0-0.552-0.449-1-1.007-1h-13.993v-1h14.006c1.101 0 1.994 0.888 1.994 2v0 0z"></path>
</symbol>
<symbol id="icon-cloud-lightning" viewBox="0 0 32 32">
<path d="M17.067 21h2.533l-6.1 6.1 1.479-4.1h-2.579l2.3-6h3.9l-1.533 4zM18 24h7.001c2.761 0 4.999-2.244 4.999-5 0-2.052-1.232-3.815-3.001-4.585v0c-0.046-2.998-2.49-5.415-5.499-5.415-1.059 0-2.047 0.299-2.886 0.817-1.276-1.71-3.316-2.817-5.614-2.817-3.866 0-7 3.134-7 7 0 0.138 0.004 0.275 0.012 0.412v0c-1.772 0.77-3.012 2.538-3.012 4.588 0 2.761 2.232 5 4.999 5h5.546l-2.545 7 7-7z"></path>
</symbol>
<symbol id="icon-cloud-sun" viewBox="0 0 32 32">
<path d="M24.953 10.219v0c1.228 0.992 2.020 2.501 2.046 4.195 1.768 0.771 3.001 2.534 3.001 4.585 0 2.756-2.238 5-4.999 5h-17.001c-2.767 0-4.999-2.239-4.999-5 0-2.051 1.24-3.818 3.012-4.588-0.008-0.136-0.012-0.273-0.012-0.412 0-3.866 3.134-7 7-7 0.522 0 1.030 0.057 1.519 0.165v0c0.878-1.87 2.778-3.165 4.981-3.165 3.038 0 5.5 2.462 5.5 5.5 0 0.244-0.016 0.484-0.047 0.719zM23.999 9.599c0.001-0.033 0.001-0.066 0.001-0.099 0-2.485-2.015-4.5-4.5-4.5-1.749 0-3.265 0.998-4.010 2.456 1.253 0.477 2.334 1.304 3.124 2.362 0.839-0.518 1.828-0.817 2.886-0.817 0.9 0 1.749 0.216 2.499 0.599v0zM19.5 0c-0.276 0-0.5 0.216-0.5 0.495v2.009c0 0.274 0.232 0.495 0.5 0.495 0.276 0 0.5-0.216 0.5-0.495v-2.009c0-0.274-0.232-0.495-0.5-0.495v0zM26.233 2.789c-0.195-0.195-0.506-0.201-0.704-0.003l-1.421 1.421c-0.193 0.193-0.186 0.514 0.003 0.704 0.195 0.195 0.506 0.201 0.704 0.003l1.421-1.421c0.193-0.193 0.186-0.514-0.003-0.704v0zM29.022 9.522c0-0.276-0.216-0.5-0.495-0.5h-2.009c-0.274 0-0.495 0.232-0.495 0.5 0 0.276 0.216 0.5 0.495 0.5h2.009c0.274 0 0.495-0.232 0.495-0.5v0zM12.767 2.789c-0.195 0.195-0.201 0.506-0.003 0.704l1.421 1.421c0.193 0.193 0.514 0.186 0.704-0.003 0.195-0.195 0.201-0.506 0.003-0.704l-1.421-1.421c-0.193-0.193-0.514-0.186-0.704 0.003v0z"></path>
</symbol>
<symbol id="icon-cloud-snow" viewBox="0 0 32 32">
<path d="M26.999 14.415c1.768 0.771 3.001 2.534 3.001 4.585 0 2.756-2.238 5-4.999 5h-17.001c-2.767 0-4.999-2.239-4.999-5 0-2.051 1.24-3.818 3.012-4.588v0c-0.008-0.136-0.012-0.273-0.012-0.412 0-3.866 3.134-7 7-7 2.298 0 4.337 1.107 5.614 2.817 0.839-0.518 1.828-0.817 2.886-0.817 3.009 0 5.454 2.416 5.499 5.415v0 0zM10 26c-0.552 0-1 0.444-1 1 0 0.552 0.444 1 1 1 0.552 0 1-0.444 1-1 0-0.552-0.444-1-1-1v0zM13 29c-0.552 0-1 0.444-1 1 0 0.552 0.444 1 1 1 0.552 0 1-0.444 1-1 0-0.552-0.444-1-1-1v0zM17 26c-0.552 0-1 0.444-1 1 0 0.552 0.444 1 1 1 0.552 0 1-0.444 1-1 0-0.552-0.444-1-1-1v0zM20 29c-0.552 0-1 0.444-1 1 0 0.552 0.444 1 1 1 0.552 0 1-0.444 1-1 0-0.552-0.444-1-1-1v0zM23 26c-0.552 0-1 0.444-1 1 0 0.552 0.444 1 1 1 0.552 0 1-0.444 1-1 0-0.552-0.444-1-1-1v0z"></path>
</symbol>
<symbol id="icon-cloud-rain" viewBox="0 0 32 32">
<path d="M26.999 14.415c1.768 0.771 3.001 2.534 3.001 4.585 0 2.756-2.238 5-4.999 5h-17.001c-2.767 0-4.999-2.239-4.999-5 0-2.051 1.24-3.818 3.012-4.588v0c-0.008-0.136-0.012-0.273-0.012-0.412 0-3.866 3.134-7 7-7 2.298 0 4.337 1.107 5.614 2.817 0.839-0.518 1.828-0.817 2.886-0.817 3.009 0 5.454 2.416 5.499 5.415v0 0zM10.5 25c-0.276 0-0.5 0.216-0.5 0.495v2.009c0 0.274 0.232 0.495 0.5 0.495 0.276 0 0.5-0.216 0.5-0.495v-2.009c0-0.274-0.232-0.495-0.5-0.495v0zM13.5 27c-0.276 0-0.5 0.216-0.5 0.495v2.009c0 0.274 0.232 0.495 0.5 0.495 0.276 0 0.5-0.216 0.5-0.495v-2.009c0-0.274-0.232-0.495-0.5-0.495v0zM16.5 25c-0.276 0-0.5 0.216-0.5 0.495v2.009c0 0.274 0.232 0.495 0.5 0.495 0.276 0 0.5-0.216 0.5-0.495v-2.009c0-0.274-0.232-0.495-0.5-0.495v0zM19.5 27c-0.276 0-0.5 0.216-0.5 0.495v2.009c0 0.274 0.232 0.495 0.5 0.495 0.276 0 0.5-0.216 0.5-0.495v-2.009c0-0.274-0.232-0.495-0.5-0.495v0zM22.5 25c-0.276 0-0.5 0.216-0.5 0.495v2.009c0 0.274 0.232 0.495 0.5 0.495 0.276 0 0.5-0.216 0.5-0.495v-2.009c0-0.274-0.232-0.495-0.5-0.495v0z"></path>
</symbol>
<symbol id="icon-cloud" viewBox="0 0 32 32">
<path d="M25.883 15.366c1.83 0.743 3.117 2.538 3.117 4.634 0 2.756-2.238 5-4.999 5h-17.001c-2.767 0-4.999-2.239-4.999-5 0-2.051 1.24-3.818 3.012-4.588v0c-0.008-0.136-0.012-0.273-0.012-0.412 0-3.866 3.134-7 7-7 2.613 0 4.891 1.431 6.094 3.553 0.727-0.354 1.543-0.553 2.406-0.553 2.649 0 4.86 1.872 5.383 4.366z"></path>
</symbol>
</defs>
</svg>
