<svg aria-hidden="true" style="position: absolute; width: 0; height: 0; overflow: hidden;" version="1.1" xmlns="http://www.w3.org/2000/svg" xmlns:xlink="http://www.w3.org/1999/xlink">
<defs>
<symbol id="icon-google" viewBox="0 0 24 28">
<path d="M12 12.281h11.328c0.109 0.609 0.187 1.203 0.187 2 0 6.844-4.594 11.719-11.516 11.719-6.641 0-12-5.359-12-12s5.359-12 12-12c3.234 0 5.953 1.188 8.047 3.141l-3.266 3.141c-0.891-0.859-2.453-1.859-4.781-1.859-4.094 0-7.438 3.391-7.438 7.578s3.344 7.578 7.438 7.578c4.75 0 6.531-3.406 6.813-5.172h-6.813v-4.125z"></path>
</symbol>
<symbol id="icon-book" viewBox="0 0 16 16">
<path d="M8 3l-6-3h-1c-0.553 0-1 0.448-1 1v11c0 0.553 0.447 1 1 1l7 3 7-3c0.553 0 1-0.447 1-1v-11c0-0.552-0.447-1-1-1h-1zM7 13.5l-5-2.5v-8l5 1.667v8.834zM14 11l-5 2.5v-8.834l5-1.667v8z"></path>
</symbol>
<symbol id="icon-calendar" viewBox="0 0 16 16">
<path d="M5 6h2v2h-2zM8 6h2v2h-2zM11 6h2v2h-2zM2 12h2v2h-2zM5 12h2v2h-2zM8 12h2v2h-2zM5 9h2v2h-2zM8 9h2v2h-2zM11 9h2v2h-2zM2 9h2v2h-2zM13 0v1h-2v-1h-7v1h-2v-1h-2v16h15v-16h-2zM14 15h-13v-11h13v11z"></path>
</symbol>
<symbol id="icon-bookmark" viewBox="0 0 32 32">
<path d="M25 29h-16v-22h7v9.125l3.541-2.688 3.459 2.688v-9.125h4v20c0 1.104-0.896 2-2 2zM19.541 12.125l-2.541 2v-8.125h5v8.125l-2.459-2zM6 5v1c0 0.552 0.448 1 1 1h1v22h-1c-1.104 0-2-0.896-2-2v-22c0-1.104 0.896-2 2-2h18c0.738 0 1.376 0.404 1.723 1h-19.723c-0.552 0-1 0.447-1 1z"></path>
</symbol>
<symbol id="icon-graduation-cap" viewBox="0 0 20 20">
<path d="M3.302 12.238c0.464 1.879 1.054 2.701 3.022 3.562 1.969 0.86 2.904 1.8 3.676 1.8s1.648-0.822 3.616-1.684c1.969-0.861 1.443-1.123 1.907-3.002l-5.523 2.686-6.698-3.362zM19.511 7.336l-8.325-4.662c-0.652-0.365-1.72-0.365-2.372 0l-8.326 4.662c-0.652 0.365-0.652 0.963 0 1.328l8.325 4.662c0.652 0.365 1.72 0.365 2.372 0l5.382-3.014-5.836-1.367c-0.225 0.055-0.472 0.086-0.731 0.086-1.052 0-1.904-0.506-1.904-1.131 0-0.627 0.853-1.133 1.904-1.133 0.816 0 1.51 0.307 1.78 0.734l6.182 2.029 1.549-0.867c0.651-0.364 0.651-0.962 0-1.327zM16.967 16.17c-0.065 0.385 1.283 1.018 1.411-0.107 0.579-5.072-0.416-6.531-0.416-6.531l-1.395 0.781c0-0.001 1.183 1.125 0.4 5.857z"></path>
</symbol>
<symbol id="icon-language" viewBox="0 0 20 20">
<path d="M19.753 10.909c-0.624-1.707-2.366-2.726-4.661-2.726-0.090 0-0.176 0.002-0.262 0.006l-0.016-2.063c0 0 3.41-0.588 3.525-0.607s0.133-0.119 0.109-0.231c-0.023-0.111-0.167-0.883-0.188-0.976-0.027-0.131-0.102-0.127-0.207-0.109s-3.25 0.461-3.25 0.461-0.012-1.953-0.013-2.078c-0.001-0.125-0.069-0.158-0.194-0.156s-0.92 0.014-1.025 0.016c-0.105 0.002-0.164 0.049-0.162 0.148s0.033 2.307 0.033 2.307-3.061 0.527-3.144 0.543c-0.084 0.014-0.17 0.053-0.151 0.143s0.19 1.094 0.208 1.172c0.018 0.080 0.072 0.129 0.188 0.107 0.115-0.019 2.924-0.504 2.924-0.504l0.035 2.018c-1.077 0.281-1.801 0.824-2.256 1.303-0.768 0.807-1.207 1.887-1.207 2.963 0 1.586 0.971 2.529 2.328 2.695 3.162 0.387 5.119-3.060 5.769-4.715 1.097 1.506 0.256 4.354-2.094 5.98-0.043 0.029-0.098 0.129-0.033 0.207s0.541 0.662 0.619 0.756c0.080 0.096 0.206 0.059 0.256 0.023 2.51-1.73 3.661-4.515 2.869-6.683zM12.367 14.097c-0.966-0.121-0.944-0.914-0.944-1.453 0-0.773 0.327-1.58 0.876-2.156 0.335-0.354 0.75-0.621 1.229-0.799l0.082 4.277c-0.385 0.131-0.799 0.185-1.243 0.131zM14.794 13.544l0.046-4.109c0.084-0.004 0.166-0.010 0.252-0.010 0.773 0 1.494 0.145 1.885 0.361s-1.023 2.713-2.183 3.758zM5.844 5.876c-0.030-0.094-0.103-0.145-0.196-0.145h-1.95c-0.093 0-0.165 0.051-0.194 0.144-0.412 1.299-3.48 10.99-3.496 11.041s-0.011 0.076 0.062 0.076h1.733c0.075 0 0.099-0.023 0.114-0.072 0.015-0.051 1.008-3.318 1.008-3.318h3.496c0 0 0.992 3.268 1.008 3.318s0.039 0.072 0.113 0.072h1.734c0.072 0 0.078-0.025 0.062-0.076-0.014-0.050-3.083-9.741-3.494-11.040zM3.226 12.194l1.447-5.25 1.447 5.25h-2.894z"></path>
</symbol>
<symbol id="icon-youtube" viewBox="0 0 20 20">
<path d="M10 2.3c-9.828 0-10 0.874-10 7.7s0.172 7.7 10 7.7 10-0.874 10-7.7-0.172-7.7-10-7.7zM13.205 10.334l-4.49 2.096c-0.393 0.182-0.715-0.022-0.715-0.456v-3.948c0-0.433 0.322-0.638 0.715-0.456l4.49 2.096c0.393 0.184 0.393 0.484 0 0.668z"></path>
</symbol>
</defs>
</svg>
